<svg xmlns="http://www.w3.org/2000/svg" xmlns:xlink="http://www.w3.org/1999/xlink" width="500" zoomAndPan="magnify" viewBox="0 0 375 374.999991" height="500" preserveAspectRatio="xMidYMid meet" version="1.0"><defs><clipPath id="6d3c45dd72"><path d="M 58.191406 58.191406 L 316.941406 58.191406 L 316.941406 316.941406 L 58.191406 316.941406 Z M 58.191406 58.191406 " clip-rule="nonzero"/></clipPath><clipPath id="39705ed9a8"><path d="M 102.277344 119.359375 L 272.527344 119.359375 L 272.527344 147.859375 L 102.277344 147.859375 Z M 102.277344 119.359375 " clip-rule="nonzero"/></clipPath><clipPath id="7f40a0e676"><path d="M 173.335938 119.542969 L 201.835938 119.542969 L 201.835938 289.792969 L 173.335938 289.792969 Z M 173.335938 119.542969 " clip-rule="nonzero"/></clipPath><clipPath id="2c0c24214d"><path d="M 215.359375 160.914062 L 272.722656 160.914062 L 272.722656 179.191406 L 215.359375 179.191406 Z M 215.359375 160.914062 " clip-rule="nonzero"/></clipPath><clipPath id="dab7a1655b"><path d="M 215.359375 165.042969 L 227.492188 165.042969 L 227.492188 198.253906 L 215.359375 198.253906 Z M 215.359375 165.042969 " clip-rule="nonzero"/></clipPath><clipPath id="3cad15a2ad"><path d="M 215.359375 194.125 L 272.722656 194.125 L 272.722656 206.257812 L 215.359375 206.257812 Z M 215.359375 194.125 " clip-rule="nonzero"/></clipPath><clipPath id="24a63e5e16"><path d="M 260.589844 200.191406 L 272.722656 200.191406 L 272.722656 233.402344 L 260.589844 233.402344 Z M 260.589844 200.191406 " clip-rule="nonzero"/></clipPath><clipPath id="2887127121"><path d="M 215.359375 221.257812 L 272.722656 221.257812 L 272.722656 239.390625 L 215.359375 239.390625 Z M 215.359375 221.257812 " clip-rule="nonzero"/></clipPath><clipPath id="c314eda8ab"><path d="M 68.738281 164.886719 L 159.832031 164.886719 L 159.832031 175.21875 L 68.738281 175.21875 Z M 68.738281 164.886719 " clip-rule="nonzero"/></clipPath><clipPath id="e976604c2d"><path d="M 68.738281 183.792969 L 159.832031 183.792969 L 159.832031 194.125 L 68.738281 194.125 Z M 68.738281 183.792969 " clip-rule="nonzero"/></clipPath><clipPath id="9133f4b67c"><path d="M 68.738281 202.375 L 159.832031 202.375 L 159.832031 212.707031 L 68.738281 212.707031 Z M 68.738281 202.375 " clip-rule="nonzero"/></clipPath><clipPath id="38e2be2889"><path d="M 149.5 230.316406 L 159.832031 230.316406 L 159.832031 310.445312 L 149.5 310.445312 Z M 149.5 230.316406 " clip-rule="nonzero"/></clipPath><clipPath id="39e69771f5"><path d="M 100.15625 219.761719 L 138.40625 219.761719 L 138.40625 258 L 100.15625 258 Z M 100.15625 219.761719 " clip-rule="nonzero"/></clipPath><clipPath id="a9e82b27f1"><path d="M 112.433594 232.039062 L 125.933594 232.039062 L 125.933594 245.539062 L 112.433594 245.539062 Z M 112.433594 232.039062 " clip-rule="nonzero"/></clipPath><clipPath id="185de71f62"><path d="M 130.945312 270.382812 L 141.277344 270.382812 L 141.277344 297.660156 L 130.945312 297.660156 Z M 130.945312 270.382812 " clip-rule="nonzero"/></clipPath><clipPath id="44850904e5"><path d="M 55.425781 272.886719 L 89.175781 272.886719 L 89.175781 306.636719 L 55.425781 306.636719 Z M 55.425781 272.886719 " clip-rule="nonzero"/></clipPath><clipPath id="a988113073"><path d="M 65.578125 283.039062 L 79.078125 283.039062 L 79.078125 296.539062 L 65.578125 296.539062 Z M 65.578125 283.039062 " clip-rule="nonzero"/></clipPath><clipPath id="0f605501d6"><path d="M 279.667969 284.144531 L 313.417969 284.144531 L 313.417969 317.894531 L 279.667969 317.894531 Z M 279.667969 284.144531 " clip-rule="nonzero"/></clipPath><clipPath id="1d496dc374"><path d="M 289.820312 294.296875 L 303.320312 294.296875 L 303.320312 307.796875 L 289.820312 307.796875 Z M 289.820312 294.296875 " clip-rule="nonzero"/></clipPath><clipPath id="a10a3b6dcf"><path d="M 272.90625 41.273438 L 317 41.273438 L 317 85.523438 L 272.90625 85.523438 Z M 272.90625 41.273438 " clip-rule="nonzero"/></clipPath><clipPath id="e451ccd2e4"><path d="M 281.285156 49.652344 L 308.285156 49.652344 L 308.285156 76.652344 L 281.285156 76.652344 Z M 281.285156 49.652344 " clip-rule="nonzero"/></clipPath><clipPath id="add4f3f386"><path d="M 289.613281 54.753906 L 300.285156 54.753906 L 300.285156 65.023438 L 289.613281 65.023438 Z M 289.613281 54.753906 " clip-rule="nonzero"/></clipPath><clipPath id="8cb6a26ad8"><path d="M 290.453125 59.480469 C 295.542969 54.9375 296.199219 54.71875 296.855469 54.773438 C 297.566406 54.828125 298.386719 55.101562 298.933594 55.539062 C 299.480469 55.976562 299.972656 56.6875 300.082031 57.398438 C 300.191406 58.273438 299.808594 59.808594 299.261719 60.519531 C 298.824219 61.121094 298.003906 61.449219 297.347656 61.558594 C 296.636719 61.722656 295.816406 61.613281 295.160156 61.230469 C 294.449219 60.792969 293.460938 59.535156 293.351562 58.601562 C 293.242188 57.671875 293.792969 56.25 294.503906 55.59375 C 295.214844 54.992188 296.691406 54.664062 297.621094 54.882812 C 298.550781 55.101562 299.589844 56.25 299.972656 57.070312 C 300.300781 57.726562 300.355469 58.4375 300.027344 59.261719 C 299.425781 60.738281 296.417969 63.527344 294.941406 64.402344 C 294.121094 64.894531 293.40625 65.058594 292.640625 65.003906 C 291.929688 64.949219 291.054688 64.457031 290.507812 63.910156 C 290.015625 63.363281 289.6875 62.488281 289.632812 61.722656 C 289.632812 61.011719 290.453125 59.480469 290.453125 59.480469 " clip-rule="nonzero"/></clipPath><clipPath id="c1ef789d36"><path d="M 149.523438 92.648438 L 159.683594 92.648438 L 159.683594 104.777344 L 149.523438 104.777344 Z M 149.523438 92.648438 " clip-rule="nonzero"/></clipPath><clipPath id="279b872cf9"><path d="M 156.941406 97.601562 C 152.308594 101.992188 151.171875 97.765625 151.253906 96.300781 C 151.253906 95.40625 151.578125 94.757812 152.066406 94.1875 C 152.554688 93.621094 153.285156 93.214844 154.015625 93.050781 C 154.667969 92.886719 155.558594 92.96875 156.210938 93.292969 C 156.859375 93.539062 157.59375 94.109375 157.917969 94.839844 C 158.242188 95.652344 158.324219 97.277344 157.917969 98.089844 C 157.429688 98.984375 156.128906 99.878906 155.152344 99.960938 C 154.179688 100.121094 152.714844 99.472656 152.066406 98.742188 C 151.414062 98.007812 151.089844 96.464844 151.332031 95.570312 C 151.660156 94.59375 152.796875 93.457031 153.609375 93.132812 C 154.339844 92.808594 155.234375 92.886719 155.886719 93.132812 C 156.535156 93.375 157.1875 93.699219 157.671875 94.515625 C 158.566406 95.816406 160.03125 99.390625 159.542969 101.097656 C 159.136719 102.640625 157.105469 104.347656 155.804688 104.675781 C 154.667969 105 153.285156 104.429688 152.308594 103.863281 C 151.332031 103.292969 150.195312 102.316406 149.789062 101.179688 C 149.382812 99.878906 149.625 97.765625 150.03125 96.382812 C 150.441406 95.246094 151.171875 93.945312 151.984375 93.375 C 152.714844 92.886719 153.527344 92.644531 154.339844 92.726562 C 155.152344 92.886719 156.453125 93.699219 156.859375 94.433594 C 157.347656 95.246094 156.941406 97.601562 156.941406 97.601562 " clip-rule="nonzero"/></clipPath><clipPath id="afe6bdaef8"><path d="M 180.300781 86.085938 L 194.257812 86.085938 L 194.257812 99.054688 L 180.300781 99.054688 Z M 180.300781 86.085938 " clip-rule="nonzero"/></clipPath><clipPath id="7e5fac94c2"><path d="M 189.21875 93.550781 C 187.214844 94.816406 186.261719 91.542969 186.792969 90.488281 C 187.214844 89.640625 188.691406 89.21875 189.644531 89.113281 C 190.59375 89.113281 191.648438 89.429688 192.390625 89.960938 C 193.128906 90.59375 193.867188 91.4375 193.972656 92.386719 C 194.289062 93.445312 193.972656 95.453125 193.234375 96.402344 C 192.390625 97.351562 190.59375 98.195312 189.324219 97.984375 C 188.058594 97.878906 186.472656 96.824219 185.839844 95.769531 C 185.207031 94.710938 185.207031 92.707031 185.734375 91.542969 C 186.367188 90.488281 187.953125 89.324219 189.21875 89.21875 C 190.382812 89.007812 192.285156 89.855469 193.128906 90.699219 C 193.761719 91.332031 194.078125 92.386719 194.183594 93.339844 C 194.289062 94.183594 193.972656 95.238281 193.445312 96.085938 C 193.023438 96.824219 192.285156 97.351562 191.226562 97.773438 C 189.644531 98.515625 186.578125 99.359375 184.785156 98.9375 C 183.199219 98.515625 181.300781 97.351562 180.664062 95.875 C 179.925781 94.183594 180.558594 90.59375 181.511719 89.007812 C 182.25 87.742188 183.726562 86.683594 184.890625 86.367188 C 185.839844 86.050781 187.003906 86.050781 187.953125 86.578125 C 188.902344 87.109375 190.171875 88.585938 190.382812 89.746094 C 190.59375 90.910156 189.21875 93.550781 189.21875 93.550781 " clip-rule="nonzero"/></clipPath><clipPath id="78b8447a1d"><path d="M 214.859375 92.359375 L 226.667969 92.359375 L 226.667969 103.628906 L 214.859375 103.628906 Z M 214.859375 92.359375 " clip-rule="nonzero"/></clipPath><clipPath id="95554cada1"><path d="M 215.660156 97.800781 C 219.933594 95.699219 221.660156 95.472656 221.734375 95.699219 C 221.882812 95.925781 220.082031 97.273438 220.082031 97.273438 C 220.082031 97.273438 221.507812 95.625 221.808594 95.773438 C 222.109375 95.925781 221.359375 97.722656 221.808594 98.324219 C 222.410156 99 224.808594 98.398438 225.632812 99 C 226.234375 99.523438 226.683594 100.5 226.609375 101.175781 C 226.457031 102 225.332031 103.347656 224.582031 103.574219 C 223.757812 103.722656 222.183594 102.898438 221.808594 102.222656 C 221.359375 101.625 221.433594 100.425781 221.808594 99.824219 C 222.257812 99.148438 223.832031 98.398438 224.660156 98.550781 C 225.410156 98.699219 226.535156 100.125 226.609375 100.949219 C 226.683594 101.625 226.082031 102.675781 225.558594 103.125 C 225.183594 103.425781 224.734375 103.574219 223.984375 103.574219 C 222.632812 103.574219 218.734375 102.675781 217.609375 101.472656 C 216.859375 100.648438 216.785156 99.449219 216.785156 98.324219 C 216.707031 96.824219 216.785156 94.273438 217.683594 93.375 C 218.507812 92.472656 220.535156 92.25 221.660156 92.472656 C 222.558594 92.699219 223.308594 93.449219 223.910156 94.125 C 224.507812 94.875 225.257812 96.074219 225.257812 96.972656 C 225.332031 97.722656 225.035156 98.550781 224.359375 99.222656 C 223.082031 100.425781 218.660156 102.148438 216.933594 101.847656 C 216.035156 101.699219 215.132812 100.949219 214.910156 100.273438 C 214.683594 99.597656 215.660156 97.800781 215.660156 97.800781 " clip-rule="nonzero"/></clipPath><clipPath id="ce9ddff0d4"><path d="M 279.765625 185.8125 L 294.042969 185.8125 L 294.042969 192.113281 L 279.765625 192.113281 Z M 279.765625 185.8125 " clip-rule="nonzero"/></clipPath><clipPath id="cd27f8cf23"><path d="M 282.074219 187.425781 C 292.351562 186.074219 293.398438 186.601562 293.773438 187.273438 C 294.148438 187.875 294.074219 189 293.625 189.523438 C 293.175781 190.125 291.675781 190.800781 290.925781 190.648438 C 290.175781 190.425781 289.199219 189.074219 289.125 188.25 C 289.125 187.574219 289.726562 186.675781 290.25 186.300781 C 290.625 185.925781 291.226562 185.773438 291.675781 185.851562 C 292.351562 185.925781 293.324219 186.449219 293.625 187.050781 C 294 187.726562 293.925781 189.226562 293.324219 189.976562 C 292.648438 190.800781 290.851562 191.101562 289.425781 191.398438 C 287.699219 191.851562 285.300781 192.074219 283.726562 192.074219 C 282.675781 192.074219 281.625 192.148438 280.949219 191.773438 C 280.425781 191.550781 280.050781 191.101562 279.898438 190.574219 C 279.675781 189.976562 279.75 188.925781 280.125 188.398438 C 280.5 187.875 282.074219 187.425781 282.074219 187.425781 " clip-rule="nonzero"/></clipPath><clipPath id="2763fceffd"><path d="M 282.285156 179.558594 L 290 179.558594 L 290 198.328125 L 282.285156 198.328125 Z M 282.285156 179.558594 " clip-rule="nonzero"/></clipPath><clipPath id="3328379df0"><path d="M 283.199219 194.175781 C 284.773438 192.148438 285 187.875 284.773438 185.851562 C 284.625 184.425781 283.5 183.226562 283.574219 182.175781 C 283.648438 181.351562 284.023438 180.449219 284.550781 180.074219 C 285.148438 179.625 286.273438 179.398438 286.875 179.699219 C 287.625 180 288.601562 181.425781 288.601562 182.175781 C 288.601562 182.925781 288 183.898438 287.398438 184.199219 C 286.648438 184.574219 284.925781 184.425781 284.324219 183.898438 C 283.800781 183.300781 283.5 181.574219 283.875 180.898438 C 284.25 180.148438 285.824219 179.476562 286.648438 179.625 C 287.324219 179.699219 287.925781 180.375 288.449219 181.125 C 289.125 182.175781 289.800781 183.976562 289.949219 185.851562 C 290.101562 188.175781 289.273438 192.148438 288.601562 194.175781 C 288.226562 195.375 287.773438 196.199219 287.175781 196.875 C 286.574219 197.550781 285.75 198.074219 285.074219 198.226562 C 284.476562 198.375 283.875 198.300781 283.425781 198 C 282.898438 197.625 282.375 196.800781 282.300781 196.125 C 282.226562 195.523438 283.199219 194.175781 283.199219 194.175781 " clip-rule="nonzero"/></clipPath><clipPath id="47bb2176ad"><path d="M 302 96 L 317 96 L 317 108 L 302 108 Z M 302 96 " clip-rule="nonzero"/></clipPath><clipPath id="cb6bf59b6f"><path d="M 312.335938 109.652344 L 300.523438 104.332031 L 305.5 93.285156 L 317.3125 98.609375 Z M 312.335938 109.652344 " clip-rule="nonzero"/></clipPath><clipPath id="08150da23a"><path d="M 311 102.980469 C 308.546875 107.140625 307.945312 107.199219 307.445312 107.21875 C 306.902344 107.140625 306.257812 106.929688 305.9375 106.542969 C 305.515625 106.019531 305.253906 105.328125 305.316406 104.453125 C 305.363281 103.074219 306.601562 100.503906 307.492188 99.261719 C 308.058594 98.367188 308.710938 97.835938 309.429688 97.335938 C 310.117188 96.90625 311.039062 96.5 311.847656 96.535156 C 312.753906 96.53125 313.878906 96.957031 314.535156 97.5 C 315.160156 97.945312 315.6875 98.59375 315.851562 99.328125 C 316.085938 100.089844 316.195312 101.125 315.757812 101.914062 C 315.355469 102.804688 314.253906 103.789062 312.988281 104.042969 C 310.792969 104.53125 304.660156 103.167969 303.429688 101.707031 C 302.722656 100.898438 302.832031 99.382812 303.238281 98.660156 C 303.515625 98.046875 304.636719 97.5625 305.308594 97.535156 C 305.839844 97.449219 306.417969 97.625 306.835938 97.976562 C 307.359375 98.460938 307.96875 99.476562 307.898438 100.183594 C 307.796875 100.960938 306.746094 102.378906 305.945312 102.511719 C 305.113281 102.714844 303.539062 102.003906 303.109375 101.316406 C 302.71875 100.730469 302.769531 99.519531 303.046875 98.902344 C 303.421875 98.25 304.210938 97.78125 305.003906 97.480469 C 306.101562 97.234375 308.027344 97.527344 309.28125 97.847656 C 310.164062 98.078125 311.210938 98.304688 311.675781 98.925781 C 312.066406 99.511719 312.03125 100.320312 311.867188 101.234375 C 311.65625 102.617188 310.253906 105.359375 309.421875 106.300781 C 308.9375 106.824219 308.511719 107.042969 308.046875 107.160156 C 307.511719 107.25 306.804688 107.175781 306.355469 106.894531 C 305.832031 106.410156 305.253906 105.328125 305.316406 104.453125 C 305.300781 103.210938 306.585938 100.910156 307.464844 100.234375 C 307.882812 99.847656 308.515625 99.722656 308.988281 99.769531 C 309.492188 99.75 310.136719 99.960938 310.492188 100.449219 C 310.917969 100.96875 311 102.980469 311 102.980469 " clip-rule="nonzero"/></clipPath><clipPath id="a66f5a4d8f"><path d="M 295.148438 262.226562 L 303.386719 262.226562 L 303.386719 270.953125 L 295.148438 270.953125 Z M 295.148438 262.226562 " clip-rule="nonzero"/></clipPath><clipPath id="a2f9802ce0"><path d="M 300.976562 269.566406 C 299.699219 270.992188 298.351562 271.066406 297.601562 270.691406 C 296.699219 270.316406 295.5 269.039062 295.273438 268.066406 C 294.976562 267.015625 295.574219 265.367188 296.101562 264.617188 C 296.476562 264.089844 297 263.789062 297.601562 263.566406 C 298.351562 263.339844 299.476562 263.191406 300.300781 263.566406 C 301.199219 264.015625 302.398438 265.214844 302.625 266.265625 C 302.925781 267.316406 302.476562 268.964844 301.726562 269.714844 C 301.050781 270.464844 299.398438 271.066406 298.425781 270.914062 C 297.375 270.765625 295.949219 269.714844 295.5 268.816406 C 295.050781 267.839844 295.125 266.117188 295.648438 265.214844 C 296.175781 264.316406 297.601562 263.414062 298.648438 263.339844 C 299.699219 263.265625 301.273438 263.941406 301.949219 264.765625 C 302.550781 265.589844 302.925781 267.316406 302.550781 268.289062 C 302.25 269.265625 300.976562 270.464844 300 270.765625 C 299.25 271.066406 298.273438 270.914062 297.601562 270.691406 C 297 270.464844 296.476562 270.242188 296.101562 269.640625 C 295.574219 268.890625 294.976562 267.316406 295.273438 266.191406 C 295.574219 264.914062 297.226562 263.039062 298.351562 262.515625 C 299.175781 262.066406 300.226562 262.214844 301.050781 262.515625 C 301.800781 262.816406 302.699219 263.492188 303.074219 264.316406 C 303.449219 265.214844 303.449219 266.941406 303 267.839844 C 302.699219 268.589844 300.976562 269.566406 300.976562 269.566406 " clip-rule="nonzero"/></clipPath><clipPath id="a1444c2637"><path d="M 253.496094 302.449219 L 263.8125 302.449219 L 263.8125 318 L 253.496094 318 Z M 253.496094 302.449219 " clip-rule="nonzero"/></clipPath><clipPath id="b0febb48e2"><path d="M 263.773438 306.601562 C 262.875 309.75 261.300781 312.226562 260.023438 312.976562 C 258.976562 313.574219 257.476562 313.5 256.574219 313.351562 C 255.898438 313.273438 255.449219 313.125 255 312.675781 C 254.398438 312.226562 253.800781 311.25 253.648438 310.574219 C 253.5 309.976562 253.574219 309.375 253.726562 308.851562 C 253.875 308.324219 254.175781 307.800781 254.550781 307.425781 C 255.148438 306.898438 255.976562 306.449219 256.875 306.300781 C 258.148438 306.226562 260.324219 306.675781 261.523438 307.425781 C 262.574219 308.101562 263.625 309 263.773438 310.273438 C 264 312.074219 261.226562 316.726562 260.175781 317.625 C 259.726562 317.925781 259.5 317.925781 259.050781 317.925781 C 258.375 317.925781 257.324219 317.851562 256.726562 317.398438 C 256.125 317.023438 255.449219 316.425781 255.226562 315.675781 C 254.925781 314.773438 255 313.050781 255.601562 312.226562 C 256.125 311.398438 257.550781 310.648438 258.601562 310.648438 C 259.574219 310.648438 261.074219 311.398438 261.675781 312.226562 C 262.199219 313.050781 262.425781 314.699219 262.050781 315.601562 C 261.675781 316.574219 260.324219 317.550781 259.425781 317.851562 C 258.675781 318.074219 257.773438 317.925781 257.101562 317.625 C 256.425781 317.324219 255.675781 316.726562 255.375 316.050781 C 255 315.148438 255 313.425781 255.375 312.601562 C 255.675781 311.851562 256.726562 310.875 257.023438 310.949219 C 257.398438 311.101562 257.773438 313.125 257.398438 313.425781 C 257.101562 313.726562 255.601562 313.199219 255 312.675781 C 254.324219 312.226562 253.800781 311.25 253.648438 310.574219 C 253.5 309.976562 253.5 309.449219 253.726562 308.851562 C 253.949219 308.175781 254.625 307.273438 255.226562 306.824219 C 255.75 306.523438 256.726562 306.148438 256.875 306.300781 C 256.949219 306.449219 256.648438 306.976562 256.648438 306.976562 C 256.648438 306.976562 257.175781 304.425781 257.773438 303.601562 C 258.375 303 259.125 302.550781 259.949219 302.476562 C 260.851562 302.398438 262.351562 302.851562 262.949219 303.523438 C 263.625 304.199219 263.773438 306.601562 263.773438 306.601562 " clip-rule="nonzero"/></clipPath><clipPath id="74190def54"><path d="M 258.894531 306.101562 L 267.566406 306.101562 L 267.566406 311.824219 L 258.894531 311.824219 Z M 258.894531 306.101562 " clip-rule="nonzero"/></clipPath><clipPath id="5fc2167213"><path d="M 260.851562 307.273438 C 266.101562 306.226562 266.851562 306.675781 267.148438 307.199219 C 267.523438 307.726562 267.601562 308.773438 267.300781 309.375 C 267 309.976562 265.574219 310.726562 264.898438 310.726562 C 264.226562 310.648438 263.324219 310.050781 263.101562 309.449219 C 262.875 308.773438 263.175781 307.199219 263.699219 306.675781 C 264.148438 306.226562 265.199219 306 265.800781 306.148438 C 266.476562 306.449219 267.449219 307.648438 267.523438 308.398438 C 267.601562 309 267.074219 309.824219 266.550781 310.351562 C 265.800781 310.949219 264.074219 311.398438 262.949219 311.625 C 262.050781 311.773438 261.074219 311.925781 260.398438 311.699219 C 259.875 311.476562 259.425781 311.101562 259.199219 310.648438 C 258.898438 310.050781 258.824219 309.074219 259.125 308.476562 C 259.425781 307.949219 260.851562 307.273438 260.851562 307.273438 " clip-rule="nonzero"/></clipPath><clipPath id="ff2a424b98"><path d="M 42.59375 241.769531 L 48.183594 241.769531 L 48.183594 257.613281 L 42.59375 257.613281 Z M 42.59375 241.769531 " clip-rule="nonzero"/></clipPath><clipPath id="569b790a03"><path d="M 48.148438 244.5 C 47.25 256.800781 46.574219 257.25 46.050781 257.476562 C 45.523438 257.625 44.925781 257.625 44.476562 257.398438 C 43.949219 257.101562 43.199219 256.273438 42.976562 255.675781 C 42.824219 255.148438 42.898438 254.550781 43.199219 254.101562 C 43.5 253.574219 44.398438 252.898438 45 252.75 C 45.449219 252.601562 46.050781 252.75 46.5 252.976562 C 47.023438 253.351562 47.699219 254.175781 47.773438 254.851562 C 47.851562 255.523438 47.398438 256.5 46.949219 256.949219 C 46.574219 257.324219 46.050781 257.625 45.523438 257.550781 C 44.773438 257.476562 43.574219 256.875 43.050781 255.898438 C 42.074219 254.023438 42.976562 247.800781 43.273438 245.398438 C 43.5 244.199219 43.574219 243.300781 44.023438 242.699219 C 44.398438 242.25 44.925781 241.875 45.449219 241.800781 C 46.050781 241.726562 47.023438 241.949219 47.476562 242.398438 C 47.925781 242.851562 48.148438 244.5 48.148438 244.5 " clip-rule="nonzero"/></clipPath><clipPath id="0a68f49246"><path d="M 35 246.058594 L 58.460938 246.058594 L 58.460938 251.617188 L 35 251.617188 Z M 35 246.058594 " clip-rule="nonzero"/></clipPath><clipPath id="1fa4c02ad0"><path d="M 37.351562 246.300781 C 57.824219 246.824219 58.351562 248.023438 58.425781 248.773438 C 58.5 249.300781 58.199219 249.824219 57.824219 250.199219 C 57.375 250.648438 56.324219 251.101562 55.648438 251.101562 C 55.125 251.101562 54.523438 250.800781 54.226562 250.425781 C 53.773438 249.898438 53.398438 248.851562 53.476562 248.175781 C 53.476562 247.648438 53.773438 247.125 54.226562 246.824219 C 54.675781 246.375 55.800781 245.925781 56.476562 246.148438 C 57.226562 246.375 58.273438 247.726562 58.425781 248.476562 C 58.5 249 58.351562 249.601562 57.976562 249.976562 C 57.601562 250.5 57 250.875 55.949219 251.101562 C 52.800781 251.851562 39.449219 251.699219 36.75 250.875 C 36 250.574219 35.699219 250.351562 35.398438 249.898438 C 35.175781 249.523438 34.949219 248.851562 35.023438 248.324219 C 35.101562 247.800781 35.398438 247.199219 35.773438 246.898438 C 36.148438 246.523438 37.351562 246.300781 37.351562 246.300781 " clip-rule="nonzero"/></clipPath><clipPath id="4f36ad1e4f"><path d="M 54.097656 73.25 L 71.164062 73.25 L 71.164062 90.855469 L 54.097656 90.855469 Z M 54.097656 73.25 " clip-rule="nonzero"/></clipPath><clipPath id="e5765e0393"><path d="M 54.148438 79.105469 C 57.523438 74.53125 58.875 73.78125 60.300781 73.480469 C 61.648438 73.179688 63.375 73.179688 64.726562 73.554688 C 65.925781 73.929688 67.125 74.605469 67.949219 75.507812 C 68.851562 76.40625 69.449219 77.53125 69.976562 78.882812 C 70.574219 80.382812 71.476562 82.554688 71.023438 84.28125 C 70.574219 86.304688 67.800781 89.15625 66.226562 90.054688 C 65.324219 90.65625 64.199219 90.582031 63.523438 90.730469 C 63.148438 90.804688 62.925781 90.804688 62.625 90.804688 C 62.324219 90.804688 61.949219 90.730469 61.726562 90.65625 C 61.425781 90.582031 61.125 90.429688 60.824219 90.28125 C 60.523438 90.132812 60.300781 89.980469 60.074219 89.757812 C 59.851562 89.53125 59.625 89.304688 59.476562 89.082031 C 59.398438 88.929688 59.398438 88.78125 59.25 88.632812 C 58.949219 88.332031 57.449219 88.40625 56.773438 87.804688 C 55.875 87.132812 55.125 85.632812 54.675781 84.207031 C 54.148438 82.707031 54.148438 79.105469 54.148438 79.105469 " clip-rule="nonzero"/></clipPath><clipPath id="f25671a35a"><path d="M 50.5 114.011719 L 59.316406 114.011719 L 59.316406 122.945312 L 50.5 122.945312 Z M 50.5 114.011719 " clip-rule="nonzero"/></clipPath><clipPath id="040af81373"><path d="M 59.316406 117.039062 C 58.191406 121.835938 57.515625 122.210938 56.839844 122.511719 C 56.242188 122.738281 55.492188 123.039062 54.742188 122.886719 C 53.691406 122.664062 51.816406 121.539062 51.140625 120.710938 C 50.691406 120.113281 50.464844 119.4375 50.542969 118.6875 C 50.617188 117.5625 51.292969 115.613281 52.265625 114.863281 C 53.242188 114.113281 55.265625 113.886719 56.390625 114.113281 C 57.140625 114.261719 58.191406 115.238281 58.191406 115.238281 " clip-rule="nonzero"/></clipPath><clipPath id="663a2fdf06"><path d="M 47.277344 116.628906 L 62.550781 116.628906 L 62.550781 120.5625 L 47.277344 120.5625 Z M 47.277344 116.628906 " clip-rule="nonzero"/></clipPath><clipPath id="0a860b8d9d"><path d="M 48.777344 117 C 62.203125 117 62.578125 118.199219 62.429688 118.800781 C 62.277344 119.25 61.230469 119.851562 60.628906 119.851562 C 60.179688 119.851562 59.578125 119.324219 59.355469 118.949219 C 59.128906 118.5 59.054688 117.75 59.355469 117.375 C 59.652344 116.851562 61.152344 116.476562 61.753906 116.699219 C 62.128906 116.851562 62.503906 117.601562 62.503906 118.050781 C 62.578125 118.5 62.355469 119.101562 61.902344 119.476562 C 60.929688 120.226562 58.078125 120.375 55.980469 120.449219 C 53.578125 120.523438 49.304688 120.75 48.105469 119.851562 C 47.429688 119.398438 47.203125 118.5 47.355469 117.976562 C 47.503906 117.523438 48.777344 117 48.777344 117 " clip-rule="nonzero"/></clipPath><clipPath id="c48abe7d6b"><path d="M 307.101562 92.640625 L 310.597656 92.640625 L 310.597656 99.894531 L 307.101562 99.894531 Z M 307.101562 92.640625 " clip-rule="nonzero"/></clipPath><clipPath id="6ad250847e"><path d="M 307.5 98.324219 C 307.726562 94.875 306.976562 94.273438 307.125 93.824219 C 307.199219 93.375 307.648438 92.851562 308.101562 92.699219 C 308.550781 92.550781 309.523438 92.925781 309.898438 93.300781 C 310.125 93.601562 310.273438 94.351562 310.050781 94.726562 C 309.824219 95.175781 308.925781 95.773438 308.476562 95.699219 C 308.023438 95.699219 307.425781 95.324219 307.273438 94.949219 C 307.050781 94.5 307.125 93.449219 307.5 93.074219 C 307.875 92.699219 308.925781 92.476562 309.375 92.851562 C 310.125 93.375 310.726562 96.148438 310.574219 97.351562 C 310.574219 98.324219 310.125 99.449219 309.601562 99.75 C 309.226562 99.976562 308.550781 99.824219 308.175781 99.601562 C 307.875 99.300781 307.5 98.324219 307.5 98.324219 " clip-rule="nonzero"/></clipPath></defs><rect x="-37.5" width="450" fill="#ffffff" y="-37.499999" height="449.999989" fill-opacity="1"/><rect x="-37.5" width="450" fill="#ffffff" y="-37.499999" height="449.999989" fill-opacity="1"/><g clip-path="url(#6d3c45dd72)"><path fill="#212121" d="M 187.554688 58.191406 C 223.277344 58.191406 255.617188 72.667969 279.027344 96.078125 C 302.441406 119.492188 316.921875 151.832031 316.921875 187.554688 C 316.921875 223.273438 302.441406 255.617188 279.027344 279.027344 C 255.617188 302.441406 223.277344 316.921875 187.554688 316.921875 C 151.832031 316.921875 119.492188 302.441406 96.078125 279.027344 C 72.667969 255.617188 58.191406 223.273438 58.191406 187.554688 C 58.191406 151.832031 72.667969 119.492188 96.078125 96.078125 C 119.492188 72.667969 151.832031 58.191406 187.554688 58.191406 Z M 268.867188 106.246094 C 248.058594 85.433594 219.308594 72.5625 187.554688 72.5625 C 155.800781 72.5625 127.050781 85.433594 106.246094 106.246094 C 85.433594 127.050781 72.5625 155.796875 72.5625 187.554688 C 72.5625 219.308594 85.433594 248.058594 106.246094 268.867188 C 127.050781 289.675781 155.800781 302.546875 187.554688 302.546875 C 219.308594 302.546875 248.058594 289.675781 268.867188 268.867188 C 289.675781 248.058594 302.546875 219.308594 302.546875 187.554688 C 302.546875 155.796875 289.675781 127.050781 268.867188 106.246094 " fill-opacity="1" fill-rule="nonzero"/></g><g clip-path="url(#39705ed9a8)"><path fill="#212121" d="M 102.449219 119.371094 L 272.535156 119.371094 C 272.535156 128.816406 272.535156 138.261719 272.535156 147.707031 C 215.839844 147.707031 159.144531 147.707031 102.449219 147.707031 C 102.449219 138.261719 102.449219 128.816406 102.449219 119.371094 " fill-opacity="1" fill-rule="nonzero"/></g><g clip-path="url(#7f40a0e676)"><path fill="#212121" d="M 173.34375 289.625 L 173.34375 119.539062 C 182.789062 119.539062 192.238281 119.539062 201.683594 119.539062 C 201.683594 176.234375 201.683594 232.929688 201.683594 289.625 C 192.238281 289.625 182.789062 289.625 173.34375 289.625 " fill-opacity="1" fill-rule="nonzero"/></g><g clip-path="url(#2c0c24214d)"><path fill="#212121" d="M 215.359375 160.914062 L 272.691406 160.914062 L 272.691406 179.191406 L 215.359375 179.191406 Z M 215.359375 160.914062 " fill-opacity="1" fill-rule="nonzero"/></g><g clip-path="url(#dab7a1655b)"><path fill="#212121" d="M 215.359375 198.253906 L 215.359375 165.035156 L 227.492188 165.035156 L 227.492188 198.253906 Z M 215.359375 198.253906 " fill-opacity="1" fill-rule="nonzero"/></g><g clip-path="url(#3cad15a2ad)"><path fill="#212121" d="M 215.359375 194.125 L 272.703125 194.125 L 272.703125 206.257812 L 215.359375 206.257812 Z M 215.359375 194.125 " fill-opacity="1" fill-rule="nonzero"/></g><g clip-path="url(#24a63e5e16)"><path fill="#212121" d="M 260.589844 233.402344 L 260.589844 200.179688 L 272.722656 200.179688 L 272.722656 233.402344 Z M 260.589844 233.402344 " fill-opacity="1" fill-rule="nonzero"/></g><g clip-path="url(#2887127121)"><path fill="#212121" d="M 215.359375 221.257812 L 272.730469 221.257812 L 272.730469 239.390625 L 215.359375 239.390625 Z M 215.359375 221.257812 " fill-opacity="1" fill-rule="nonzero"/></g><g clip-path="url(#c314eda8ab)"><path fill="#212121" d="M 68.738281 164.886719 L 159.828125 164.886719 L 159.828125 175.21875 L 68.738281 175.21875 Z M 68.738281 164.886719 " fill-opacity="1" fill-rule="nonzero"/></g><g clip-path="url(#e976604c2d)"><path fill="#212121" d="M 68.738281 183.792969 L 159.828125 183.792969 L 159.828125 194.125 L 68.738281 194.125 Z M 68.738281 183.792969 " fill-opacity="1" fill-rule="nonzero"/></g><g clip-path="url(#9133f4b67c)"><path fill="#212121" d="M 68.738281 202.375 L 159.828125 202.375 L 159.828125 212.707031 L 68.738281 212.707031 Z M 68.738281 202.375 " fill-opacity="1" fill-rule="nonzero"/></g><g clip-path="url(#38e2be2889)"><path fill="#212121" d="M 149.5 310.445312 L 149.5 230.335938 L 159.832031 230.335938 L 159.832031 310.445312 Z M 149.5 310.445312 " fill-opacity="1" fill-rule="nonzero"/></g><g clip-path="url(#39e69771f5)"><path fill="#212121" d="M 138.230469 238.800781 C 138.230469 239.421875 138.203125 240.046875 138.140625 240.664062 C 138.078125 241.285156 137.988281 241.902344 137.867188 242.515625 C 137.746094 243.125 137.59375 243.730469 137.414062 244.324219 C 137.230469 244.921875 137.023438 245.507812 136.78125 246.085938 C 136.542969 246.660156 136.277344 247.222656 135.984375 247.773438 C 135.691406 248.324219 135.371094 248.859375 135.023438 249.375 C 134.675781 249.894531 134.304688 250.394531 133.910156 250.875 C 133.515625 251.359375 133.097656 251.820312 132.65625 252.261719 C 132.214844 252.703125 131.753906 253.121094 131.273438 253.515625 C 130.789062 253.910156 130.289062 254.28125 129.769531 254.628906 C 129.253906 254.976562 128.71875 255.296875 128.167969 255.589844 C 127.621094 255.882812 127.054688 256.148438 126.480469 256.386719 C 125.902344 256.625 125.316406 256.835938 124.722656 257.015625 C 124.125 257.199219 123.519531 257.347656 122.910156 257.472656 C 122.296875 257.59375 121.679688 257.683594 121.0625 257.746094 C 120.441406 257.804688 119.820312 257.835938 119.195312 257.835938 C 118.570312 257.835938 117.949219 257.804688 117.328125 257.746094 C 116.707031 257.683594 116.09375 257.59375 115.480469 257.472656 C 114.871094 257.347656 114.265625 257.199219 113.667969 257.015625 C 113.070312 256.835938 112.484375 256.625 111.910156 256.386719 C 111.332031 256.148438 110.769531 255.882812 110.222656 255.589844 C 109.671875 255.296875 109.136719 254.976562 108.617188 254.628906 C 108.101562 254.28125 107.601562 253.910156 107.117188 253.515625 C 106.636719 253.121094 106.175781 252.703125 105.734375 252.261719 C 105.292969 251.820312 104.875 251.359375 104.480469 250.875 C 104.082031 250.394531 103.710938 249.894531 103.367188 249.375 C 103.019531 248.859375 102.699219 248.324219 102.40625 247.773438 C 102.113281 247.222656 101.84375 246.660156 101.605469 246.085938 C 101.367188 245.507812 101.160156 244.921875 100.976562 244.324219 C 100.796875 243.730469 100.644531 243.125 100.523438 242.511719 C 100.402344 241.902344 100.3125 241.285156 100.25 240.664062 C 100.1875 240.046875 100.15625 239.421875 100.15625 238.800781 C 100.15625 238.175781 100.1875 237.554688 100.25 236.933594 C 100.3125 236.3125 100.402344 235.699219 100.523438 235.085938 C 100.644531 234.472656 100.796875 233.871094 100.976562 233.273438 C 101.160156 232.675781 101.367188 232.089844 101.605469 231.515625 C 101.84375 230.9375 102.113281 230.375 102.40625 229.824219 C 102.699219 229.277344 103.019531 228.742188 103.367188 228.222656 C 103.710938 227.703125 104.082031 227.203125 104.480469 226.722656 C 104.875 226.242188 105.292969 225.78125 105.734375 225.339844 C 106.175781 224.898438 106.636719 224.480469 107.117188 224.082031 C 107.601562 223.6875 108.101562 223.316406 108.617188 222.972656 C 109.136719 222.625 109.671875 222.304688 110.222656 222.011719 C 110.769531 221.714844 111.332031 221.449219 111.910156 221.210938 C 112.484375 220.972656 113.070312 220.761719 113.667969 220.582031 C 114.265625 220.402344 114.871094 220.25 115.480469 220.128906 C 116.09375 220.007812 116.707031 219.914062 117.328125 219.855469 C 117.949219 219.792969 118.570312 219.761719 119.195312 219.761719 C 119.820312 219.761719 120.441406 219.792969 121.0625 219.855469 C 121.679688 219.914062 122.296875 220.007812 122.910156 220.128906 C 123.519531 220.25 124.125 220.402344 124.722656 220.582031 C 125.316406 220.761719 125.902344 220.972656 126.480469 221.210938 C 127.054688 221.449219 127.621094 221.714844 128.167969 222.011719 C 128.71875 222.304688 129.253906 222.625 129.769531 222.972656 C 130.289062 223.316406 130.789062 223.6875 131.273438 224.082031 C 131.753906 224.480469 132.214844 224.898438 132.65625 225.339844 C 133.097656 225.78125 133.515625 226.242188 133.910156 226.722656 C 134.304688 227.203125 134.675781 227.703125 135.023438 228.222656 C 135.371094 228.742188 135.691406 229.277344 135.984375 229.824219 C 136.277344 230.375 136.542969 230.9375 136.78125 231.515625 C 137.023438 232.089844 137.230469 232.675781 137.414062 233.273438 C 137.59375 233.871094 137.746094 234.472656 137.867188 235.085938 C 137.988281 235.699219 138.078125 236.3125 138.140625 236.933594 C 138.203125 237.554688 138.230469 238.175781 138.230469 238.800781 Z M 138.230469 238.800781 " fill-opacity="1" fill-rule="nonzero"/></g><g clip-path="url(#a9e82b27f1)"><path fill="#ffffff" d="M 125.933594 238.789062 C 125.933594 239.230469 125.890625 239.671875 125.804688 240.105469 C 125.71875 240.539062 125.589844 240.960938 125.417969 241.371094 C 125.25 241.78125 125.042969 242.167969 124.796875 242.539062 C 124.550781 242.90625 124.269531 243.246094 123.957031 243.5625 C 123.644531 243.875 123.300781 244.152344 122.933594 244.398438 C 122.566406 244.648438 122.175781 244.855469 121.765625 245.023438 C 121.355469 245.195312 120.933594 245.320312 120.5 245.40625 C 120.066406 245.496094 119.625 245.539062 119.183594 245.539062 C 118.738281 245.539062 118.300781 245.496094 117.867188 245.40625 C 117.429688 245.320312 117.007812 245.195312 116.601562 245.023438 C 116.191406 244.855469 115.800781 244.648438 115.433594 244.398438 C 115.066406 244.152344 114.722656 243.875 114.410156 243.5625 C 114.097656 243.246094 113.816406 242.90625 113.570312 242.539062 C 113.324219 242.167969 113.117188 241.78125 112.945312 241.371094 C 112.777344 240.960938 112.648438 240.539062 112.5625 240.105469 C 112.476562 239.671875 112.433594 239.230469 112.433594 238.789062 C 112.433594 238.34375 112.476562 237.90625 112.5625 237.472656 C 112.648438 237.035156 112.777344 236.613281 112.945312 236.203125 C 113.117188 235.796875 113.324219 235.40625 113.570312 235.039062 C 113.816406 234.667969 114.097656 234.328125 114.410156 234.015625 C 114.722656 233.703125 115.066406 233.421875 115.433594 233.175781 C 115.800781 232.929688 116.191406 232.722656 116.601562 232.550781 C 117.007812 232.382812 117.429688 232.253906 117.867188 232.167969 C 118.300781 232.082031 118.738281 232.039062 119.183594 232.039062 C 119.625 232.039062 120.066406 232.082031 120.5 232.167969 C 120.933594 232.253906 121.355469 232.382812 121.765625 232.550781 C 122.175781 232.722656 122.566406 232.929688 122.933594 233.175781 C 123.300781 233.421875 123.644531 233.703125 123.957031 234.015625 C 124.269531 234.328125 124.550781 234.667969 124.796875 235.039062 C 125.042969 235.40625 125.25 235.796875 125.417969 236.203125 C 125.589844 236.613281 125.71875 237.035156 125.804688 237.472656 C 125.890625 237.90625 125.933594 238.34375 125.933594 238.789062 Z M 125.933594 238.789062 " fill-opacity="1" fill-rule="nonzero"/></g><g clip-path="url(#185de71f62)"><path fill="#212121" d="M 130.945312 297.660156 L 130.945312 270.378906 L 141.277344 270.378906 L 141.277344 297.660156 Z M 130.945312 297.660156 " fill-opacity="1" fill-rule="nonzero"/></g><g clip-path="url(#44850904e5)"><path fill="#212121" d="M 89.257812 289.800781 C 89.257812 290.355469 89.230469 290.910156 89.175781 291.460938 C 89.121094 292.011719 89.039062 292.558594 88.933594 293.101562 C 88.824219 293.644531 88.6875 294.183594 88.527344 294.714844 C 88.367188 295.242188 88.179688 295.765625 87.96875 296.277344 C 87.757812 296.789062 87.519531 297.289062 87.257812 297.777344 C 87 298.265625 86.714844 298.738281 86.40625 299.199219 C 86.097656 299.660156 85.769531 300.105469 85.417969 300.535156 C 85.066406 300.960938 84.695312 301.371094 84.300781 301.765625 C 83.910156 302.15625 83.5 302.527344 83.074219 302.878906 C 82.644531 303.230469 82.199219 303.558594 81.738281 303.867188 C 81.277344 304.175781 80.804688 304.460938 80.316406 304.722656 C 79.828125 304.980469 79.328125 305.21875 78.816406 305.429688 C 78.300781 305.644531 77.78125 305.828125 77.25 305.988281 C 76.722656 306.152344 76.183594 306.285156 75.640625 306.394531 C 75.097656 306.5 74.550781 306.582031 74 306.636719 C 73.449219 306.691406 72.894531 306.71875 72.339844 306.71875 C 71.785156 306.71875 71.234375 306.691406 70.683594 306.636719 C 70.132812 306.582031 69.585938 306.5 69.039062 306.394531 C 68.496094 306.285156 67.960938 306.152344 67.429688 305.988281 C 66.898438 305.828125 66.378906 305.644531 65.867188 305.429688 C 65.355469 305.21875 64.855469 304.980469 64.367188 304.722656 C 63.878906 304.460938 63.402344 304.175781 62.941406 303.867188 C 62.480469 303.558594 62.039062 303.230469 61.609375 302.878906 C 61.179688 302.527344 60.769531 302.15625 60.378906 301.765625 C 59.988281 301.371094 59.617188 300.960938 59.265625 300.535156 C 58.914062 300.105469 58.582031 299.660156 58.277344 299.199219 C 57.96875 298.738281 57.683594 298.265625 57.421875 297.777344 C 57.160156 297.289062 56.925781 296.789062 56.710938 296.277344 C 56.5 295.765625 56.3125 295.242188 56.152344 294.714844 C 55.992188 294.183594 55.859375 293.644531 55.75 293.101562 C 55.640625 292.558594 55.5625 292.011719 55.507812 291.460938 C 55.453125 290.910156 55.425781 290.355469 55.425781 289.800781 C 55.425781 289.25 55.453125 288.695312 55.507812 288.144531 C 55.5625 287.59375 55.640625 287.046875 55.75 286.503906 C 55.859375 285.960938 55.992188 285.421875 56.152344 284.890625 C 56.3125 284.363281 56.5 283.839844 56.710938 283.328125 C 56.925781 282.816406 57.160156 282.316406 57.421875 281.828125 C 57.683594 281.339844 57.96875 280.863281 58.277344 280.40625 C 58.582031 279.945312 58.914062 279.5 59.265625 279.070312 C 59.617188 278.644531 59.988281 278.234375 60.378906 277.839844 C 60.769531 277.449219 61.179688 277.078125 61.609375 276.726562 C 62.039062 276.375 62.480469 276.046875 62.941406 275.738281 C 63.402344 275.429688 63.878906 275.144531 64.367188 274.882812 C 64.855469 274.621094 65.355469 274.386719 65.867188 274.175781 C 66.378906 273.960938 66.898438 273.777344 67.429688 273.613281 C 67.960938 273.453125 68.496094 273.320312 69.039062 273.210938 C 69.585938 273.105469 70.132812 273.023438 70.683594 272.96875 C 71.234375 272.914062 71.785156 272.886719 72.339844 272.886719 C 72.894531 272.886719 73.449219 272.914062 74 272.96875 C 74.550781 273.023438 75.097656 273.105469 75.640625 273.210938 C 76.183594 273.320312 76.722656 273.453125 77.25 273.613281 C 77.78125 273.777344 78.300781 273.960938 78.816406 274.175781 C 79.328125 274.386719 79.828125 274.621094 80.316406 274.882812 C 80.804688 275.144531 81.277344 275.429688 81.738281 275.738281 C 82.199219 276.046875 82.644531 276.375 83.074219 276.726562 C 83.5 277.078125 83.910156 277.449219 84.300781 277.839844 C 84.695312 278.234375 85.066406 278.644531 85.417969 279.070312 C 85.769531 279.5 86.097656 279.945312 86.40625 280.40625 C 86.714844 280.863281 87 281.339844 87.257812 281.828125 C 87.519531 282.316406 87.757812 282.816406 87.96875 283.328125 C 88.179688 283.839844 88.367188 284.363281 88.527344 284.890625 C 88.6875 285.421875 88.824219 285.960938 88.933594 286.503906 C 89.039062 287.046875 89.121094 287.59375 89.175781 288.144531 C 89.230469 288.695312 89.257812 289.25 89.257812 289.800781 Z M 89.257812 289.800781 " fill-opacity="1" fill-rule="nonzero"/></g><g clip-path="url(#a988113073)"><path fill="#ffffff" d="M 79.078125 289.789062 C 79.078125 290.234375 79.035156 290.671875 78.949219 291.105469 C 78.863281 291.542969 78.734375 291.964844 78.566406 292.375 C 78.394531 292.78125 78.1875 293.171875 77.941406 293.539062 C 77.695312 293.910156 77.414062 294.25 77.101562 294.5625 C 76.789062 294.875 76.449219 295.15625 76.078125 295.402344 C 75.710938 295.648438 75.320312 295.855469 74.910156 296.027344 C 74.503906 296.195312 74.082031 296.324219 73.644531 296.410156 C 73.210938 296.496094 72.773438 296.539062 72.328125 296.539062 C 71.886719 296.539062 71.445312 296.496094 71.011719 296.410156 C 70.578125 296.324219 70.15625 296.195312 69.746094 296.027344 C 69.335938 295.855469 68.949219 295.648438 68.578125 295.402344 C 68.210938 295.15625 67.871094 294.875 67.554688 294.5625 C 67.242188 294.25 66.960938 293.910156 66.714844 293.539062 C 66.46875 293.171875 66.261719 292.78125 66.09375 292.375 C 65.921875 291.964844 65.796875 291.542969 65.707031 291.105469 C 65.621094 290.671875 65.578125 290.234375 65.578125 289.789062 C 65.578125 289.347656 65.621094 288.910156 65.707031 288.472656 C 65.796875 288.039062 65.921875 287.617188 66.09375 287.207031 C 66.261719 286.796875 66.46875 286.410156 66.714844 286.039062 C 66.960938 285.671875 67.242188 285.332031 67.554688 285.015625 C 67.871094 284.703125 68.210938 284.425781 68.578125 284.179688 C 68.949219 283.933594 69.335938 283.722656 69.746094 283.554688 C 70.15625 283.382812 70.578125 283.257812 71.011719 283.171875 C 71.445312 283.082031 71.886719 283.039062 72.328125 283.039062 C 72.773438 283.039062 73.210938 283.082031 73.644531 283.171875 C 74.082031 283.257812 74.503906 283.382812 74.910156 283.554688 C 75.320312 283.722656 75.710938 283.933594 76.078125 284.179688 C 76.449219 284.425781 76.789062 284.703125 77.101562 285.015625 C 77.414062 285.332031 77.695312 285.671875 77.941406 286.039062 C 78.1875 286.410156 78.394531 286.796875 78.566406 287.207031 C 78.734375 287.617188 78.863281 288.039062 78.949219 288.472656 C 79.035156 288.910156 79.078125 289.347656 79.078125 289.789062 Z M 79.078125 289.789062 " fill-opacity="1" fill-rule="nonzero"/></g><g clip-path="url(#0f605501d6)"><path fill="#212121" d="M 313.5 301.0625 C 313.5 301.613281 313.472656 302.167969 313.417969 302.71875 C 313.363281 303.269531 313.28125 303.816406 313.175781 304.359375 C 313.066406 304.902344 312.933594 305.441406 312.773438 305.972656 C 312.609375 306.5 312.425781 307.023438 312.210938 307.535156 C 312 308.046875 311.765625 308.546875 311.503906 309.035156 C 311.242188 309.523438 310.957031 309.996094 310.648438 310.457031 C 310.339844 310.917969 310.011719 311.363281 309.660156 311.792969 C 309.308594 312.21875 308.9375 312.628906 308.546875 313.023438 C 308.152344 313.414062 307.742188 313.785156 307.316406 314.136719 C 306.886719 314.488281 306.441406 314.816406 305.980469 315.125 C 305.519531 315.433594 305.046875 315.71875 304.558594 315.980469 C 304.070312 316.242188 303.570312 316.476562 303.058594 316.6875 C 302.546875 316.902344 302.023438 317.085938 301.496094 317.25 C 300.964844 317.410156 300.425781 317.542969 299.882812 317.652344 C 299.339844 317.757812 298.792969 317.839844 298.242188 317.894531 C 297.691406 317.949219 297.136719 317.976562 296.582031 317.976562 C 296.03125 317.976562 295.476562 317.949219 294.925781 317.894531 C 294.375 317.839844 293.828125 317.757812 293.285156 317.652344 C 292.742188 317.542969 292.203125 317.410156 291.671875 317.25 C 291.144531 317.085938 290.621094 316.902344 290.109375 316.6875 C 289.597656 316.476562 289.097656 316.242188 288.609375 315.980469 C 288.121094 315.71875 287.648438 315.433594 287.1875 315.125 C 286.726562 314.816406 286.28125 314.488281 285.851562 314.136719 C 285.425781 313.785156 285.015625 313.414062 284.621094 313.023438 C 284.230469 312.628906 283.859375 312.21875 283.507812 311.792969 C 283.15625 311.363281 282.828125 310.917969 282.519531 310.457031 C 282.210938 309.996094 281.925781 309.523438 281.664062 309.035156 C 281.402344 308.546875 281.167969 308.046875 280.957031 307.535156 C 280.742188 307.023438 280.558594 306.5 280.394531 305.972656 C 280.234375 305.441406 280.101562 304.902344 279.992188 304.359375 C 279.886719 303.816406 279.804688 303.269531 279.75 302.71875 C 279.695312 302.167969 279.667969 301.613281 279.667969 301.0625 C 279.667969 300.507812 279.695312 299.953125 279.75 299.402344 C 279.804688 298.851562 279.886719 298.304688 279.992188 297.761719 C 280.101562 297.21875 280.234375 296.679688 280.394531 296.148438 C 280.558594 295.621094 280.742188 295.097656 280.957031 294.585938 C 281.167969 294.074219 281.402344 293.574219 281.664062 293.085938 C 281.925781 292.597656 282.210938 292.125 282.519531 291.664062 C 282.828125 291.203125 283.15625 290.757812 283.507812 290.328125 C 283.859375 289.902344 284.230469 289.492188 284.621094 289.097656 C 285.015625 288.707031 285.425781 288.335938 285.851562 287.984375 C 286.28125 287.632812 286.726562 287.304688 287.1875 286.996094 C 287.648438 286.6875 288.121094 286.402344 288.609375 286.140625 C 289.097656 285.878906 289.597656 285.644531 290.109375 285.433594 C 290.621094 285.21875 291.144531 285.035156 291.671875 284.871094 C 292.203125 284.710938 292.742188 284.578125 293.285156 284.46875 C 293.828125 284.363281 294.375 284.28125 294.925781 284.226562 C 295.476562 284.171875 296.03125 284.144531 296.582031 284.144531 C 297.136719 284.144531 297.691406 284.171875 298.242188 284.226562 C 298.792969 284.28125 299.339844 284.363281 299.882812 284.46875 C 300.425781 284.578125 300.964844 284.710938 301.496094 284.871094 C 302.023438 285.035156 302.546875 285.21875 303.058594 285.433594 C 303.570312 285.644531 304.070312 285.878906 304.558594 286.140625 C 305.046875 286.402344 305.519531 286.6875 305.980469 286.996094 C 306.441406 287.304688 306.886719 287.632812 307.316406 287.984375 C 307.742188 288.335938 308.152344 288.707031 308.546875 289.097656 C 308.9375 289.492188 309.308594 289.902344 309.660156 290.328125 C 310.011719 290.757812 310.339844 291.203125 310.648438 291.664062 C 310.957031 292.125 311.242188 292.597656 311.503906 293.085938 C 311.765625 293.574219 312 294.074219 312.210938 294.585938 C 312.425781 295.097656 312.609375 295.621094 312.773438 296.148438 C 312.933594 296.679688 313.066406 297.21875 313.175781 297.761719 C 313.28125 298.304688 313.363281 298.851562 313.417969 299.402344 C 313.472656 299.953125 313.5 300.507812 313.5 301.0625 Z M 313.5 301.0625 " fill-opacity="1" fill-rule="nonzero"/></g><g clip-path="url(#1d496dc374)"><path fill="#ffffff" d="M 303.320312 301.046875 C 303.320312 301.492188 303.277344 301.929688 303.191406 302.367188 C 303.105469 302.800781 302.976562 303.222656 302.808594 303.632812 C 302.636719 304.042969 302.429688 304.429688 302.183594 304.796875 C 301.9375 305.167969 301.660156 305.507812 301.34375 305.820312 C 301.03125 306.136719 300.691406 306.414062 300.320312 306.660156 C 299.953125 306.90625 299.566406 307.113281 299.15625 307.285156 C 298.746094 307.453125 298.324219 307.582031 297.890625 307.667969 C 297.453125 307.753906 297.015625 307.796875 296.570312 307.796875 C 296.128906 307.796875 295.691406 307.753906 295.253906 307.667969 C 294.820312 307.582031 294.398438 307.453125 293.988281 307.285156 C 293.578125 307.113281 293.191406 306.90625 292.820312 306.660156 C 292.453125 306.414062 292.113281 306.136719 291.800781 305.820312 C 291.484375 305.507812 291.207031 305.167969 290.960938 304.796875 C 290.714844 304.429688 290.503906 304.042969 290.335938 303.632812 C 290.167969 303.222656 290.039062 302.800781 289.953125 302.367188 C 289.863281 301.929688 289.820312 301.492188 289.820312 301.046875 C 289.820312 300.605469 289.863281 300.167969 289.953125 299.730469 C 290.039062 299.296875 290.167969 298.875 290.335938 298.464844 C 290.503906 298.054688 290.714844 297.667969 290.960938 297.296875 C 291.207031 296.929688 291.484375 296.589844 291.800781 296.277344 C 292.113281 295.960938 292.453125 295.683594 292.820312 295.4375 C 293.191406 295.191406 293.578125 294.980469 293.988281 294.8125 C 294.398438 294.644531 294.820312 294.515625 295.253906 294.429688 C 295.691406 294.339844 296.128906 294.296875 296.570312 294.296875 C 297.015625 294.296875 297.453125 294.339844 297.890625 294.429688 C 298.324219 294.515625 298.746094 294.644531 299.15625 294.8125 C 299.566406 294.980469 299.953125 295.191406 300.320312 295.4375 C 300.691406 295.683594 301.03125 295.960938 301.34375 296.277344 C 301.660156 296.589844 301.9375 296.929688 302.183594 297.296875 C 302.429688 297.667969 302.636719 298.054688 302.808594 298.464844 C 302.976562 298.875 303.105469 299.296875 303.191406 299.730469 C 303.277344 300.167969 303.320312 300.605469 303.320312 301.046875 Z M 303.320312 301.046875 " fill-opacity="1" fill-rule="nonzero"/></g><g clip-path="url(#a10a3b6dcf)"><path fill="#212121" d="M 316.804688 63.222656 C 316.804688 63.941406 316.769531 64.660156 316.699219 65.375 C 316.628906 66.089844 316.523438 66.800781 316.382812 67.503906 C 316.242188 68.210938 316.066406 68.90625 315.859375 69.59375 C 315.652344 70.28125 315.410156 70.957031 315.132812 71.621094 C 314.859375 72.285156 314.550781 72.9375 314.210938 73.570312 C 313.875 74.203125 313.503906 74.820312 313.105469 75.417969 C 312.707031 76.015625 312.277344 76.589844 311.820312 77.148438 C 311.367188 77.703125 310.882812 78.234375 310.375 78.742188 C 309.867188 79.25 309.335938 79.734375 308.78125 80.191406 C 308.222656 80.644531 307.648438 81.074219 307.050781 81.472656 C 306.453125 81.871094 305.835938 82.242188 305.203125 82.582031 C 304.566406 82.917969 303.917969 83.226562 303.253906 83.5 C 302.589844 83.777344 301.914062 84.019531 301.226562 84.226562 C 300.539062 84.4375 299.84375 84.609375 299.136719 84.75 C 298.433594 84.890625 297.722656 84.996094 297.007812 85.066406 C 296.292969 85.136719 295.574219 85.171875 294.855469 85.171875 C 294.136719 85.171875 293.417969 85.136719 292.703125 85.066406 C 291.988281 84.996094 291.277344 84.890625 290.574219 84.75 C 289.867188 84.609375 289.171875 84.4375 288.484375 84.226562 C 287.796875 84.019531 287.121094 83.777344 286.457031 83.5 C 285.792969 83.226562 285.140625 82.917969 284.507812 82.582031 C 283.875 82.242188 283.257812 81.871094 282.660156 81.472656 C 282.0625 81.074219 281.484375 80.644531 280.929688 80.191406 C 280.375 79.734375 279.84375 79.25 279.335938 78.742188 C 278.828125 78.234375 278.34375 77.703125 277.886719 77.148438 C 277.433594 76.589844 277.003906 76.015625 276.605469 75.417969 C 276.207031 74.820312 275.835938 74.203125 275.496094 73.570312 C 275.160156 72.9375 274.851562 72.285156 274.578125 71.621094 C 274.300781 70.957031 274.058594 70.28125 273.851562 69.59375 C 273.640625 68.90625 273.46875 68.210938 273.328125 67.503906 C 273.1875 66.800781 273.082031 66.089844 273.011719 65.375 C 272.941406 64.660156 272.90625 63.941406 272.90625 63.222656 C 272.90625 62.503906 272.941406 61.785156 273.011719 61.070312 C 273.082031 60.355469 273.1875 59.644531 273.328125 58.941406 C 273.46875 58.234375 273.640625 57.539062 273.851562 56.851562 C 274.058594 56.164062 274.300781 55.488281 274.578125 54.824219 C 274.851562 54.160156 275.160156 53.511719 275.496094 52.875 C 275.835938 52.242188 276.207031 51.625 276.605469 51.027344 C 277.003906 50.429688 277.433594 49.855469 277.886719 49.296875 C 278.34375 48.742188 278.828125 48.210938 279.335938 47.703125 C 279.84375 47.195312 280.375 46.710938 280.929688 46.257812 C 281.484375 45.800781 282.0625 45.371094 282.660156 44.972656 C 283.257812 44.574219 283.875 44.203125 284.507812 43.867188 C 285.140625 43.527344 285.792969 43.21875 286.457031 42.945312 C 287.121094 42.667969 287.796875 42.425781 288.484375 42.21875 C 289.171875 42.011719 289.867188 41.835938 290.574219 41.695312 C 291.277344 41.554688 291.988281 41.449219 292.703125 41.378906 C 293.417969 41.308594 294.136719 41.273438 294.855469 41.273438 C 295.574219 41.273438 296.292969 41.308594 297.007812 41.378906 C 297.722656 41.449219 298.433594 41.554688 299.136719 41.695312 C 299.84375 41.835938 300.539062 42.011719 301.226562 42.21875 C 301.914062 42.425781 302.589844 42.667969 303.253906 42.945312 C 303.917969 43.21875 304.566406 43.527344 305.203125 43.867188 C 305.835938 44.203125 306.453125 44.574219 307.050781 44.972656 C 307.648438 45.371094 308.222656 45.800781 308.78125 46.257812 C 309.335938 46.710938 309.867188 47.195312 310.375 47.703125 C 310.882812 48.210938 311.367188 48.742188 311.820312 49.296875 C 312.277344 49.855469 312.707031 50.429688 313.105469 51.027344 C 313.503906 51.625 313.875 52.242188 314.210938 52.875 C 314.550781 53.511719 314.859375 54.160156 315.132812 54.824219 C 315.410156 55.488281 315.652344 56.164062 315.859375 56.851562 C 316.066406 57.539062 316.242188 58.234375 316.382812 58.941406 C 316.523438 59.644531 316.628906 60.355469 316.699219 61.070312 C 316.769531 61.785156 316.804688 62.503906 316.804688 63.222656 Z M 316.804688 63.222656 " fill-opacity="1" fill-rule="nonzero"/></g><g clip-path="url(#e451ccd2e4)"><path fill="#ffffff" d="M 308.285156 63.152344 C 308.285156 64.039062 308.199219 64.917969 308.027344 65.789062 C 307.855469 66.65625 307.597656 67.5 307.257812 68.320312 C 306.917969 69.140625 306.503906 69.917969 306.011719 70.652344 C 305.519531 71.390625 304.957031 72.074219 304.332031 72.699219 C 303.707031 73.328125 303.023438 73.886719 302.285156 74.378906 C 301.550781 74.871094 300.769531 75.285156 299.953125 75.625 C 299.132812 75.964844 298.289062 76.222656 297.417969 76.394531 C 296.550781 76.566406 295.671875 76.652344 294.785156 76.652344 C 293.898438 76.652344 293.023438 76.566406 292.152344 76.394531 C 291.28125 76.222656 290.4375 75.964844 289.621094 75.625 C 288.800781 75.285156 288.023438 74.871094 287.285156 74.378906 C 286.550781 73.886719 285.867188 73.328125 285.238281 72.699219 C 284.613281 72.074219 284.054688 71.390625 283.5625 70.652344 C 283.070312 69.917969 282.652344 69.140625 282.3125 68.320312 C 281.972656 67.5 281.71875 66.65625 281.546875 65.789062 C 281.371094 64.917969 281.285156 64.039062 281.285156 63.152344 C 281.285156 62.265625 281.371094 61.390625 281.546875 60.519531 C 281.71875 59.652344 281.972656 58.808594 282.3125 57.988281 C 282.652344 57.167969 283.070312 56.390625 283.5625 55.652344 C 284.054688 54.917969 284.613281 54.234375 285.238281 53.609375 C 285.867188 52.980469 286.550781 52.421875 287.285156 51.929688 C 288.023438 51.4375 288.800781 51.019531 289.621094 50.679688 C 290.4375 50.34375 291.28125 50.085938 292.152344 49.914062 C 293.023438 49.742188 293.898438 49.652344 294.785156 49.652344 C 295.671875 49.652344 296.550781 49.742188 297.417969 49.914062 C 298.289062 50.085938 299.132812 50.34375 299.953125 50.679688 C 300.769531 51.019531 301.550781 51.4375 302.285156 51.929688 C 303.023438 52.421875 303.707031 52.980469 304.332031 53.609375 C 304.957031 54.234375 305.519531 54.917969 306.011719 55.652344 C 306.503906 56.390625 306.917969 57.167969 307.257812 57.988281 C 307.597656 58.808594 307.855469 59.652344 308.027344 60.519531 C 308.199219 61.390625 308.285156 62.265625 308.285156 63.152344 Z M 308.285156 63.152344 " fill-opacity="1" fill-rule="nonzero"/></g><g clip-path="url(#add4f3f386)"><g clip-path="url(#8cb6a26ad8)"><path fill="#1e1e1e" d="M 287.445312 52.585938 L 302.28125 52.585938 L 302.28125 67.195312 L 287.445312 67.195312 Z M 287.445312 52.585938 " fill-opacity="1" fill-rule="nonzero"/></g></g><g clip-path="url(#c1ef789d36)"><g clip-path="url(#279b872cf9)"><path fill="#1e1e1e" d="M 146.539062 89.472656 L 162.792969 89.472656 L 162.792969 107.953125 L 146.539062 107.953125 Z M 146.539062 89.472656 " fill-opacity="1" fill-rule="nonzero"/></g></g><g clip-path="url(#afe6bdaef8)"><g clip-path="url(#7e5fac94c2)"><path fill="#1e1e1e" d="M 176.441406 82.144531 L 198.445312 82.144531 L 198.445312 103.160156 L 176.441406 103.160156 Z M 176.441406 82.144531 " fill-opacity="1" fill-rule="nonzero"/></g></g><g clip-path="url(#78b8447a1d)"><g clip-path="url(#95554cada1)"><path fill="#1e1e1e" d="M 211.910156 89.472656 L 229.6875 89.472656 L 229.6875 106.648438 L 211.910156 106.648438 Z M 211.910156 89.472656 " fill-opacity="1" fill-rule="nonzero"/></g></g><g clip-path="url(#ce9ddff0d4)"><g clip-path="url(#cd27f8cf23)"><path fill="#1e1e1e" d="M 276.898438 182.851562 L 296.859375 182.851562 L 296.859375 195.074219 L 276.898438 195.074219 Z M 276.898438 182.851562 " fill-opacity="1" fill-rule="nonzero"/></g></g><g clip-path="url(#2763fceffd)"><g clip-path="url(#3328379df0)"><path fill="#1e1e1e" d="M 279.300781 176.625 L 292.949219 176.625 L 292.949219 201.3125 L 279.300781 201.3125 Z M 279.300781 176.625 " fill-opacity="1" fill-rule="nonzero"/></g></g><g clip-path="url(#47bb2176ad)"><g clip-path="url(#cb6bf59b6f)"><g clip-path="url(#08150da23a)"><path fill="#1e1e1e" d="M 313.808594 113.542969 L 296.570312 105.777344 L 303.933594 89.433594 L 321.171875 97.199219 Z M 313.808594 113.542969 " fill-opacity="1" fill-rule="nonzero"/></g></g></g><g clip-path="url(#a66f5a4d8f)"><g clip-path="url(#a2f9802ce0)"><path fill="#1e1e1e" d="M 292.273438 259.515625 L 306.148438 259.515625 L 306.148438 273.988281 L 292.273438 273.988281 Z M 292.273438 259.515625 " fill-opacity="1" fill-rule="nonzero"/></g></g><g clip-path="url(#a1444c2637)"><g clip-path="url(#b0febb48e2)"><path fill="#1e1e1e" d="M 250.648438 299.476562 L 266.851562 299.476562 L 266.851562 320.992188 L 250.648438 320.992188 Z M 250.648438 299.476562 " fill-opacity="1" fill-rule="nonzero"/></g></g><g clip-path="url(#74190def54)"><g clip-path="url(#5fc2167213)"><path fill="#1e1e1e" d="M 256.125 303.148438 L 270.519531 303.148438 L 270.519531 314.773438 L 256.125 314.773438 Z M 256.125 303.148438 " fill-opacity="1" fill-rule="nonzero"/></g></g><g clip-path="url(#ff2a424b98)"><g clip-path="url(#569b790a03)"><path fill="#1e1e1e" d="M 39.976562 238.800781 L 51.148438 238.800781 L 51.148438 260.539062 L 39.976562 260.539062 Z M 39.976562 238.800781 " fill-opacity="1" fill-rule="nonzero"/></g></g><g clip-path="url(#0a68f49246)"><g clip-path="url(#1fa4c02ad0)"><path fill="#1e1e1e" d="M 32.023438 243.148438 L 61.410156 243.148438 L 61.410156 254.101562 L 32.023438 254.101562 Z M 32.023438 243.148438 " fill-opacity="1" fill-rule="nonzero"/></g></g><g clip-path="url(#4f36ad1e4f)"><g clip-path="url(#e5765e0393)"><path fill="#1e1e1e" d="M 51.148438 70.480469 L 74.023438 70.480469 L 74.023438 93.804688 L 51.148438 93.804688 Z M 51.148438 70.480469 " fill-opacity="1" fill-rule="nonzero"/></g></g><g clip-path="url(#f25671a35a)"><g clip-path="url(#040af81373)"><path fill="#1e1e1e" d="M 47.542969 111.113281 L 62.390625 111.113281 L 62.390625 125.960938 L 47.542969 125.960938 Z M 47.542969 111.113281 " fill-opacity="1" fill-rule="nonzero"/></g></g><g clip-path="url(#663a2fdf06)"><g clip-path="url(#0a860b8d9d)"><path fill="#1e1e1e" d="M 44.355469 113.550781 L 65.589844 113.550781 L 65.589844 123.523438 L 44.355469 123.523438 Z M 44.355469 113.550781 " fill-opacity="1" fill-rule="nonzero"/></g></g><g clip-path="url(#c48abe7d6b)"><g clip-path="url(#6ad250847e)"><path fill="#1e1e1e" d="M 304.125 89.699219 L 313.648438 89.699219 L 313.648438 102.757812 L 304.125 102.757812 Z M 304.125 89.699219 " fill-opacity="1" fill-rule="nonzero"/></g></g></svg>